<?xml version="1.0" encoding="utf-8"?>
<svg viewBox="126.409 111.61 539.743 250.256" xmlns="http://www.w3.org/2000/svg">
  <g style="" transform="matrix(1.695238, 0, 0, 1.695238, 402.695618, 224.082275)">
    <g transform="matrix(1,0,0,1,0,-48.896148324217734)" style="">
      <path opacity="1" d="M-148.63 8.13Q-148.63 9.99-148.11 10.72Q-147.59 11.45-146.04 11.93L-146.04 11.93L-145.13 12.19L-145.56 13.57L-156.19 13.57L-156.71 12.10L-155.67 11.84Q-154.50 11.50-153.94 11.11Q-153.38 10.72-153.14 9.96Q-152.91 9.21-152.91 7.83L-152.91 7.83L-152.91-11.70Q-152.91-13.69-153.47-14.47Q-154.03-15.24-155.67-15.72L-155.67-15.72L-156.71-15.98L-156.19-17.45L-146.69-17.45L-146.12-16.76L-146.69-15.98Q-147.77-14.55-148.20-12.95Q-148.63-11.36-148.63-8.76L-148.63-8.76L-148.63 8.13ZM-129.97 11.19L-129.28 12.45Q-130.96 14.18-133.42 14.18L-133.42 14.18Q-135.41 14.18-136.77 13.12Q-138.13 12.06-139.17 9.94L-139.17 9.94L-143.10 2.08Q-143.79 0.74-144.83-0.06Q-145.86-0.86-147.42-1.38L-147.42-1.38Q-147.51-1.42-147.57-1.57Q-147.64-1.72-147.64-1.85L-147.64-1.85Q-147.64-2.89-146.73-2.89L-146.73-2.89L-145.74-2.89L-138.69-11.87Q-137.87-12.91-137.87-14.16L-137.87-14.16Q-137.87-15.24-138.48-16.06L-138.48-16.06L-138.95-16.76L-138.18-17.45L-130.74-17.45L-130.23-15.98L-131.26-15.72Q-132.21-15.50-133.01-14.96Q-133.81-14.42-134.63-13.39L-134.63-13.39L-143.36-2.24Q-141.29-1.89-139.88-0.77Q-138.48 0.35-137.40 2.47L-137.40 2.47L-133.34 10.50Q-132.99 11.15-132.60 11.48Q-132.21 11.80-131.65 11.80L-131.65 11.80Q-130.74 11.80-129.97 11.19L-129.97 11.19Z" fill="#ffbd59"/>
      <path opacity="1" d="M-120.51-5.74Q-117.70-8.46-114.29-8.46L-114.29-8.46Q-111.61-8.46-109.51-7.12Q-107.42-5.78-106.25-3.41Q-105.08-1.03-105.08 1.99L-105.08 1.99Q-105.08 5.45-106.32 8.24Q-107.55 11.02-109.71 12.60Q-111.87 14.18-114.59 14.18L-114.59 14.18Q-117.14 14.18-118.91 13.01L-118.91 13.01Q-119.30 12.75-119.30 12.23L-119.30 12.23Q-119.30 11.80-119.15 11.48Q-118.99 11.15-118.65 11.15L-118.65 11.15Q-118.48 11.15-117.68 11.50Q-116.88 11.84-115.58 11.84L-115.58 11.84Q-113.90 11.84-112.54 10.68Q-111.18 9.51-110.42 7.46Q-109.66 5.41-109.66 2.86L-109.66 2.86Q-109.66 0.39-110.42-1.53Q-111.18-3.45-112.54-4.53Q-113.90-5.61-115.67-5.61L-115.67-5.61Q-118.30-5.61-120.51-3.93L-120.51-3.93L-120.51 20.27Q-120.51 21.91-120.14 22.58Q-119.77 23.25-118.69 23.51L-118.69 23.51L-117.78 23.72L-118.26 25.06L-125.78 25.06L-126.30 24.41L-125.78 23.72Q-125.00 22.60-124.70 21.39Q-124.39 20.18-124.39 18.15L-124.39 18.15L-124.39-2.89Q-124.39-3.58-124.59-3.88Q-124.78-4.18-125.30-4.31L-125.30-4.31L-127.55-4.79L-127.55-6.21Q-126.86-6.82-124.91-7.38Q-122.97-7.94-121.54-7.94L-121.54-7.94Q-120.51-7.94-120.51-5.96L-120.51-5.96L-120.51-5.74Z" fill="#ffbd59"/>
      <path opacity="1" d="M-101.20 2.86Q-101.20-0.60-99.92-3.15Q-98.65-5.70-96.25-7.08Q-93.85-8.46-90.66-8.46L-90.66-8.46Q-87.46-8.46-85.08-7.08Q-82.71-5.70-81.41-3.15Q-80.11-0.60-80.11 2.86L-80.11 2.86Q-80.11 6.27-81.41 8.84Q-82.71 11.41-85.08 12.79Q-87.46 14.18-90.66 14.18L-90.66 14.18Q-93.85 14.18-96.25 12.79Q-98.65 11.41-99.92 8.84Q-101.20 6.27-101.20 2.86L-101.20 2.86ZM-84.65 2.99Q-84.65 0.96-85.21-1.16Q-85.77-3.28-87.09-4.75Q-88.41-6.21-90.53-6.21L-90.53-6.21Q-92.34-6.21-93.74-5.07Q-95.15-3.93-95.93-1.85Q-96.70 0.22-96.70 2.90L-96.70 2.90Q-96.70 7.00-95.10 9.42Q-93.51 11.84-90.78 11.84L-90.78 11.84Q-89.01 11.84-87.61 10.74Q-86.21 9.64-85.43 7.63Q-84.65 5.62-84.65 2.99L-84.65 2.99Z" fill="#ffbd59"/>
      <path opacity="1" d="M-75.84 13.57L-76.23 12.23L-75.41 11.93Q-73.85 11.50-73.35 10.81Q-72.86 10.11-72.86 8.30L-72.86 8.30L-72.86-2.63Q-72.86-4.44-73.35-5.16Q-73.85-5.87-75.41-6.30L-75.41-6.30L-76.23-6.60L-75.84-7.90L-67.20-7.90L-66.68-7.29L-67.20-6.60Q-68.15-5.22-68.56-3.75Q-68.97-2.28-68.97 0.09L-68.97 0.09L-68.97 8.60Q-68.97 9.81-68.75 10.44Q-68.54 11.07-68.06 11.37Q-67.59 11.67-66.55 12.02L-66.55 12.02L-65.73 12.27L-66.12 13.57L-75.84 13.57ZM-56.92 10.76Q-56.53 11.37-56.22 11.65Q-55.92 11.93-55.49 11.93L-55.49 11.93Q-54.63 11.93-53.89 11.37L-53.89 11.37L-53.20 12.58Q-54.80 14.18-56.87 14.18L-56.87 14.18Q-58.64 14.18-59.81 13.23Q-60.98 12.27-62.19 10.24L-62.19 10.24L-65.17 5.28Q-65.51 4.67-66.01 4.35Q-66.51 4.02-66.98 3.81Q-67.46 3.59-67.63 3.51L-67.63 3.51Q-67.80 3.42-67.80 2.99L-67.80 2.99Q-67.80 2.12-67.07 2.12L-67.07 2.12L-66.29 2.12L-62.40-2.59Q-61.54-3.67-61.54-5.05L-61.54-5.05Q-61.54-5.83-61.84-6.56L-61.84-6.56L-62.19-7.25L-61.50-7.90L-54.45-7.90L-53.98-6.56L-54.80-6.30Q-55.75-6.09-56.51-5.59Q-57.26-5.09-58.00-4.14L-58.00-4.14L-63.40 2.68Q-61.19 3.76-60.29 5.32L-60.29 5.32L-56.92 10.76Z" fill="#ffbd59"/>
      <path opacity="1" d="" fill="#ffbd59"/>
      <path opacity="1" d="M-19.20 9.38Q-19.20 10.63-18.12 11.26Q-17.04 11.89-15.36 11.89L-15.36 11.89L-15.36 20.83L-16.65 21.35L-16.87 20.40Q-17.47 17.89-18.17 16.47Q-18.86 15.04-19.94 14.31Q-21.02 13.57-22.79 13.57L-22.79 13.57L-32.51 13.57Q-34.28 13.57-35.34 14.28Q-36.40 15.00-37.04 16.40Q-37.69 17.80-38.43 20.40L-38.43 20.40L-38.69 21.30L-40.02 20.79L-40.02 11.89Q-37.39 11.58-36.05 10.09Q-34.71 8.60-34.19 6.25Q-33.67 3.89-33.20-0.77L-33.20-0.77L-32.94-3.02Q-32.81-3.75-32.81-4.18L-32.81-4.18Q-32.81-5.26-33.42-5.65Q-34.02-6.04-35.66-6.30L-35.66-6.30L-36.57-6.60L-36.14-7.90L-17.47-7.90L-16.96-7.25L-17.47-6.60Q-18.47-5.31-18.84-3.84Q-19.20-2.37-19.20 0.09L-19.20 0.09L-19.20 9.38ZM-25.68 11.32Q-24.13 11.32-23.63 10.74Q-23.13 10.16-23.13 8.30L-23.13 8.30L-23.13-2.54Q-23.13-4.36-23.63-4.94Q-24.13-5.52-25.68-5.52L-25.68-5.52L-27.32-5.52Q-28.53-5.52-29.14-5.20Q-29.74-4.88-29.83-3.93L-29.83-3.93Q-30.39 1.09-30.91 3.98Q-31.43 6.87-32.29 8.73Q-33.16 10.59-34.54 11.32L-34.54 11.32L-25.68 11.32Z" fill="#ffbd59"/>
      <path opacity="1" d="M-12.33 2.86Q-12.33-0.60-11.06-3.15Q-9.78-5.70-7.39-7.08Q-4.99-8.46-1.79-8.46L-1.79-8.46Q1.40-8.46 3.78-7.08Q6.16-5.70 7.45-3.15Q8.75-0.60 8.75 2.86L8.75 2.86Q8.75 6.27 7.45 8.84Q6.16 11.41 3.78 12.79Q1.40 14.18-1.79 14.18L-1.79 14.18Q-4.99 14.18-7.39 12.79Q-9.78 11.41-11.06 8.84Q-12.33 6.27-12.33 2.86L-12.33 2.86ZM4.21 2.99Q4.21 0.96 3.65-1.16Q3.09-3.28 1.77-4.75Q0.45-6.21-1.66-6.21L-1.66-6.21Q-3.48-6.21-4.88-5.07Q-6.29-3.93-7.06-1.85Q-7.84 0.22-7.84 2.90L-7.84 2.90Q-7.84 7.00-6.24 9.42Q-4.64 11.84-1.92 11.84L-1.92 11.84Q-0.15 11.84 1.25 10.74Q2.66 9.64 3.43 7.63Q4.21 5.62 4.21 2.99L4.21 2.99Z" fill="#ffbd59"/>
      <path opacity="1" d="" fill="#ffbd59"/>
      <path opacity="1" d="M58.38 9.42Q58.38 10.68 59.49 11.28Q60.59 11.89 62.32 11.89L62.32 11.89L62.32 20.83L60.93 21.35L60.72 20.40Q59.81 16.68 58.56 15.13Q57.30 13.57 54.71 13.57L54.71 13.57L24.99 13.57L24.52 12.23L25.47 11.97Q26.98 11.67 27.45 10.91Q27.93 10.16 27.93 8.30L27.93 8.30L27.93-2.63Q27.93-4.44 27.45-5.16Q26.98-5.87 25.47-6.30L25.47-6.30L24.52-6.60L24.99-7.90L33.72-7.90L34.15-7.25L33.72-6.60Q32.68-5.26 32.27-3.77Q31.86-2.28 31.86 0.09L31.86 0.09L31.86 8.30Q31.86 10.16 32.38 10.74Q32.90 11.32 34.45 11.32L34.45 11.32L38.56 11.32Q40.15 11.32 40.74 10.72Q41.32 10.11 41.32 8.30L41.32 8.30L41.32-2.63Q41.32-4.44 40.78-5.16Q40.24-5.87 38.73-6.30L38.73-6.30L37.86-6.60L38.30-7.90L46.85-7.90L47.37-7.25L46.85-6.60Q45.86-5.26 45.45-3.80Q45.04-2.33 45.04 0.09L45.04 0.09L45.04 8.60Q45.04 9.81 45.23 10.37Q45.42 10.94 45.94 11.13Q46.46 11.32 47.54 11.32L47.54 11.32L51.90 11.32Q52.98 11.32 53.52 11.09Q54.06 10.85 54.26 10.22Q54.45 9.60 54.45 8.30L54.45 8.30L54.45-2.63Q54.45-4.44 53.96-5.16Q53.46-5.87 51.90-6.30L51.90-6.30L51.00-6.60L51.43-7.90L60.20-7.90L60.72-7.25L60.20-6.60Q59.21-5.26 58.80-3.80Q58.38-2.33 58.38 0.09L58.38 0.09L58.38 9.42Z" fill="#ffbd59"/>
      <path opacity="1" d="M80.72 9.60Q78.95 12.10 77.09 13.14Q75.23 14.18 73.07 14.18L73.07 14.18Q71.00 14.18 69.23 12.99Q67.46 11.80 66.40 9.42Q65.34 7.05 65.34 3.68L65.34 3.68Q65.34-0.04 66.70-2.78Q68.06-5.52 70.59-6.99Q73.12-8.46 76.53-8.46L76.53-8.46Q78.21-8.46 81.28-7.90L81.28-7.90Q83.87-7.47 85.17-7.38L85.17-7.38L85.64-6.82L85.13-6.04Q84.82-5.61 84.69-5.24Q84.56-4.88 84.56-4.36L84.56-4.36L84.56 9.77Q84.56 11.11 85.86 11.11L85.86 11.11Q86.94 11.11 88.02 10.33L88.02 10.33L88.84 11.45Q87.72 12.71 86.42 13.44Q85.13 14.18 84.05 14.18L84.05 14.18Q82.27 14.18 81.50 13.10Q80.72 12.02 80.72 9.60L80.72 9.60ZM69.88 2.86Q69.88 6.96 71.28 8.91Q72.68 10.85 74.80 10.85L74.80 10.85Q76.53 10.85 78.04 9.88Q79.55 8.91 80.72 6.92L80.72 6.92L80.72-4.75Q78.73-6.09 76.49-6.09L76.49-6.09Q73.33-6.09 71.60-3.73Q69.88-1.38 69.88 2.86L69.88 2.86Z" fill="#ffbd59"/>
      <path opacity="1" d="M108.28 9.12Q108.41 8.99 108.67 8.99L108.67 8.99Q109.02 8.99 109.38 9.38Q109.75 9.77 109.75 10.20L109.75 10.20Q109.75 10.46 109.62 10.59L109.62 10.59Q108.11 12.32 106.10 13.25Q104.09 14.18 101.84 14.18L101.84 14.18Q98.86 14.18 96.49 12.73Q94.11 11.28 92.77 8.71Q91.43 6.14 91.43 2.90L91.43 2.90Q91.43-0.51 92.73-3.08Q94.02-5.65 96.38-7.06Q98.73-8.46 101.89-8.46L101.89-8.46Q105.21-8.46 107.35-6.84Q109.49-5.22 109.49-2.67L109.49-2.67Q109.49-0.81 108.30 0.37Q107.11 1.56 105.26 1.56L105.26 1.56Q104.44 1.56 104.44 1.09L104.44 1.09Q104.44 0.96 104.74 0.48Q105.04 0.01 105.26-0.69Q105.47-1.38 105.47-2.46L105.47-2.46Q105.47-4.18 104.37-5.20Q103.27-6.21 101.41-6.21L101.41-6.21Q98.95-6.21 97.44-3.80Q95.93-1.38 95.93 2.55L95.93 2.55Q95.93 6.57 97.72 8.93Q99.51 11.28 102.58 11.28L102.58 11.28Q105.69 11.28 108.28 9.12L108.28 9.12Z" fill="#ffbd59"/>
      <path opacity="1" d="M129.45-1.85Q129.02-3.36 128.56-4.10Q128.11-4.83 127.33-5.11Q126.55-5.39 125.13-5.39L125.13-5.39L124.61-5.39Q123.79-5.39 123.51-4.81Q123.23-4.23 123.23-2.41L123.23-2.41L123.23 8.30Q123.23 10.11 123.72 10.81Q124.22 11.50 125.73 11.93L125.73 11.93L126.73 12.23L126.21 13.57L117.57 13.57L117.05 12.92L117.57 12.23Q118.56 10.94 118.95 9.49Q119.34 8.04 119.34 5.58L119.34 5.58L119.34-2.41Q119.34-4.23 119.06-4.81Q118.78-5.39 117.96-5.39L117.96-5.39L117.53-5.39Q116.06-5.39 115.28-5.11Q114.50-4.83 114.03-4.10Q113.55-3.36 113.16-1.85L113.16-1.85L112.90-0.94L111.56-1.38L111.56-8.46L112.26-9.02L112.90-8.46Q113.51-8.03 114.59-7.86Q115.67-7.68 117.48-7.68L117.48-7.68L125.13-7.68Q126.94-7.68 128.02-7.86Q129.10-8.03 129.66-8.46L129.66-8.46L130.31-9.02L131.00-8.46L131.00-1.38L129.66-0.94L129.45-1.85Z" fill="#ffbd59"/>
      <path opacity="1" d="M137.92 6.57Q138.95 4.80 140.25 4.11L140.25 4.11Q137.61 3.55 136.14 1.93Q134.68 0.31 134.68-1.98L134.68-1.98Q134.68-5.09 137.16-6.75Q139.64-8.42 144.91-8.42L144.91-8.42Q147.68-8.42 150.66-7.90Q153.64-7.38 155.41-6.69L155.41-6.69L154.94-5.18L152.60-5.18Q152.13-5.18 151.93-4.98Q151.74-4.79 151.74-4.27L151.74-4.27L151.74 8.21Q151.74 10.07 152.24 10.78Q152.73 11.50 154.25 11.93L154.25 11.93L155.20 12.23L154.76 13.57L145.99 13.57L145.52 12.97L145.99 12.23Q146.99 10.98 147.40 9.49Q147.81 8.00 147.81 5.58L147.81 5.58L147.81-4.36Q147.81-6.17 144.57-6.17L144.57-6.17Q141.72-6.17 140.27-4.98Q138.82-3.80 138.82-1.72L138.82-1.72Q138.82 0.27 140.03 1.39Q141.24 2.51 143.45 2.51L143.45 2.51Q144.31 2.51 144.81 2.36Q145.30 2.21 145.43 2.21L145.43 2.21Q145.99 2.21 145.99 2.94L145.99 2.94Q145.99 3.42 145.39 3.81Q144.78 4.20 143.83 4.28L143.83 4.28Q143.06 4.80 142.58 5.71L142.58 5.71L139.56 11.15Q138.61 12.92 137.79 13.55Q136.97 14.18 135.37 14.18L135.37 14.18Q133.34 14.18 131.74 12.58L131.74 12.58L132.39 11.37Q133.12 11.93 133.98 11.93L133.98 11.93Q134.46 11.93 134.78 11.67Q135.11 11.41 135.50 10.76L135.50 10.76L137.92 6.57Z" fill="#ffbd59"/>
    </g>
    <g transform="matrix(-2.0746508412885056 0.1490767813608154 -0.14255944918806115 -1.9839513470296672 24.919999999999504 2.314492684666784)">
      <path style="stroke: none; stroke-width: 1; stroke-dasharray: none; stroke-linecap: butt; stroke-dashoffset: 0; stroke-linejoin: miter; stroke-miterlimit: 4; fill: rgb(255,208,89); fill-rule: nonzero; opacity: 1;" transform=" translate(-50.1, -50.311679658516475)" d="M 91.3 45.1 c -25.1 11.4 -57.5 11.4 -82.5 0 c -0.5 -0.2 -1.1 0 -1.3 0.5 c -0.2 0.5 0 1.1 0.5 1.3 c 12.8 5.8 27.4 8.7 42.1 8.7 s 29.3 -2.9 42.1 -8.7 c 0.5 -0.2 0.7 -0.8 0.5 -1.3 C 92.4 45.1 91.8 44.9 91.3 45.1 z" stroke-linecap="round"/>
    </g>
    <g transform="matrix(1,0,0,1,29.29333333333284,49.85664832421773)" style="">
      <path opacity="1" d="M-82.34-14.15C-84.33-13.56-86.32-13.32-88.31-13.32C-90.80-13.32-93.29-13.69-95.78-14.31C-95.95-14.48-96.11-14.56-96.28-14.56C-96.36-14.56-96.49-14.52-96.57-14.48C-96.90-14.60-97.61-14.85-97.86-14.85C-98.19-14.85-98.85-14.48-99.31-14.31C-98.89-13.61-97.73-12.07-97.73-11.41L-99.48-2.65C-100.14 1.25-101.14 5.48-101.14 9.59C-101.14 11.75-100.89 13.91-100.14 13.91C-99.56 13.91-98.85 12.70-98.85 11.46C-98.85 10.71-99.02 9.97-99.02 9.18C-99.02 6.06-98.19 2.70-97.53-0.28C-93.91-1.90-89.43-3.73-85.57-3.73C-84.78-3.73-83.42-3.60-83.42-2.73C-83.42-1.90-84.33-0.70-84.66-0.16C-86.44 2.91-89.43 9.68-93.79 9.68C-94.37 9.68-94.95 9.34-95.53 9.34C-95.91 9.34-96.11 10.01-96.11 10.63C-96.11 12.12-94.54 12.08-93.79 12.08C-89.52 12.08-86.61 6.27-84.74 3.04C-84.00 1.75-82.17-1.03-82.17-3.27C-82.17-5.18-83.66-6.26-85.82-6.26C-87.81-6.26-89.97-5.47-91.47-5.02C-93.33-4.43-95.24-3.85-97.03-3.02C-96.57-5.47-95.99-7.88-95.45-10.33L-95.08-10.12C-95.16-10.45-95.20-10.70-95.20-10.95C-95.20-11.66-94.83-11.90-94.08-11.90C-91.92-11.90-89.76-11.45-87.65-11.45C-85.24-11.45-83.79-12.07-81.71-12.82C-81.30-12.98-81.13-13.65-80.93-14.15C-81.22-14.15-81.55-14.19-81.88-14.19C-82.05-14.19-82.17-14.19-82.34-14.15Z" fill="#ffd059"/>
      <path opacity="1" d="M-73.29 10.80C-73.21 6.89-73.21 3.37-73.21-0.16C-73.21-0.58-73.58-1.32-73.91-1.32C-74.45-1.32-75.32-0.66-75.65 0.13L-81.80 10.55C-82.13 11.13-82.29 11.79-82.59 12.37C-80.10 10.92-78.85 9.05-77.02 7.10C-76.73 6.89-76.40 6.81-76.15 6.69C-76.03 6.98-75.86 7.35-75.86 7.64C-75.86 8.60-75.95 9.47-75.95 10.38C-75.95 11.17-75.49 11.58-74.87 11.58C-74.16 11.58-73.70 11.09-73.29 10.80Z" fill="#ffd059"/>
      <path opacity="1" d="M-63.99-1.36C-65.03-0.95-66.23-0.66-67.06 0.05C-69.47 1.79-71.13 4.90-71.13 7.97C-71.13 9.14-70.30 10.09-69.10 10.09C-67.73 10.09-66.32 8.85-66.03 8.85C-65.65 8.85-65.45 12.25-63.83 12.25C-62.21 12.25-62.13 5.48-61.42 1.79C-61.38 1.54-61.38 1.29-61.38 1.08C-61.38-0.37-62.21-1.20-63.99-1.36ZM-63.99 2.16C-65.24 4.03-66.86 7.48-68.31 7.48C-68.81 7.48-68.97 6.81-68.97 6.60C-68.97 5.44-67.23 2.95-66.07 1.42C-65.94 1.21-65.49 1.13-65.07 1.13C-64.53 1.13-64.49 1.33-63.99 2.16Z" fill="#ffd059"/>
      <path opacity="1" d="M-58.64 4.16C-57.44 3.04-56.07 1.87-54.66 1.25C-55.44 2.99-56.23 4.53-57.06 6.11C-57.64 7.19-58.22 8.51-58.22 9.88C-58.22 11.21-57.64 12.46-55.90 12.46C-53.78 12.46-51.63 11.63-49.51 11.04C-48.97 10.88-48.72 10.05-48.72 9.18C-48.72 8.26-49.01 7.35-49.43 7.35L-49.51 7.35C-51.63 7.97-54.03 8.76-56.07 8.76C-54.74 5.90-52.66 3.74-52.66-0.20C-52.66-1.49-53.00-2.61-54.03-2.61C-55.73-2.61-57.73-0.66-59.01 0.55C-59.51 1.00-59.68 1.67-59.68 2.37C-59.68 1.87-59.72 4.28-58.85 4.28C-58.81 4.28-58.72 4.24-58.64 4.16Z" fill="#ffd059"/>
      <path opacity="1" d="M-47.48 6.98C-47.48 10.51-45.82 12.41-43.04 12.41C-39.22 12.41-35.73 7.43-35.73 3.33C-35.73 1.96-36.02 0.59-36.60-0.78C-36.77-1.07-37.23-1.32-37.52-1.61C-38.18-1.28-38.51-1.07-38.51-0.45C-38.51 0.55-37.93 1.38-37.93 2.25C-37.93 4.53-39.38 7.27-40.63 9.43C-40.92 9.92-42.08 10.17-42.87 10.51C-43.20 9.88-43.91 9.26-43.91 8.64L-43.91 8.51C-43.33 5.86-42.75 3.12-40.13 0.92C-39.96 0.84-39.88 0.55-39.88 0.30C-39.88-0.45-40.79-0.78-41.75-0.78C-45.36-0.78-47.23 5.15-47.48 6.98Z" fill="#ffd059"/>
      <path opacity="1" d="M-23.95-4.89C-25.94-4.89-25.90-2.36-27.81-2.36C-28.22-2.36-28.64-2.61-29.01-2.61C-31.58-2.61-34.03 3.04-34.03 5.40C-34.03 7.27-33.45 8.10-32.20 8.10C-31.79 8.10-31.08 7.89-30.71 7.89C-30.30 7.89-30.17 8.14-30.17 8.47C-30.17 9.43-30.63 10.92-31.00 11.92C-32.08 15.69-32.99 19.51-34.36 23.12C-35.07 24.95-35.90 26.81-37.60 27.98C-37.72 27.81-37.85 27.73-38.01 27.73C-38.64 27.73-38.64 27.35-38.64 27.27C-38.64 25.74-37.77 24.03-37.23 22.71C-35.90 19.51-34.20 16.40-32.45 13.37C-32.16 12.91-32.00 12.37-32.04 11.83C-32.04 11.42-32.16 9.92-32.87 9.92C-32.99 9.92-33.12 10.01-33.24 10.21C-36.23 15.32-40.30 21.46-40.30 27.69C-40.21 29.06-39.76 31.42-38.01 31.42C-37.85 31.42-37.72 31.38-37.60 31.17C-37.47 31.21-37.39 31.21-37.27 31.21C-36.31 31.21-34.11 29.06-33.12 27.73C-30.21 23.74-28.93 18.97-27.89 14.28C-26.93 9.92-25.94 5.61-24.86 1.29C-24.49-0.24-23.82-1.65-23.32-3.23C-23.24-3.44-23.20-3.69-23.20-3.94C-23.20-4.39-23.36-4.77-23.95-4.89ZM-31.21 6.06C-31.42 6.27-31.62 6.36-31.83 6.36C-32.20 6.36-32.45 5.98-32.45 5.48C-32.16 2.95-31.21 0.75-29.42-1.03C-29.26-1.20-28.97-1.28-28.68-1.28C-28.01-1.28-27.97-0.74-27.76-0.33C-28.30 2.25-29.34 4.45-31.21 6.06Z" fill="#ffd059"/>
      <path opacity="1" d="M-22.37 10.71C-22.29 10.71-22.24 10.80-22.24 10.80L-22.24 11.09C-22.24 11.71-21.62 12.41-21.25 12.95C-20.67 12.66-19.75 12.21-19.55 11.42C-18.63 7.81-17.72 4.11-16.89 0.46L-16.89 0.25C-16.89-0.66-17.60-1.45-18.55-1.45C-21.33-1.45-20.87 2.83-21.25 4.90C-21.62 6.89-21.95 8.76-22.37 10.71ZM-18.51-7.17C-18.26-6.97-17.47-6.09-17.22-6.09C-16.19-6.09-15.40-8.46-15.40-8.29C-15.40-8.92-15.98-9.25-16.77-9.25C-17.80-9.25-18.47-8.67-18.51-7.17Z" fill="#ffd059"/>
      <path opacity="1" d="M-14.57 7.27C-14.28 7.56-14.32 8.76-14.19 9.26C-13.90 10.34-13.36 10.92-12.57 10.92C-11.12 10.92-10.62 8.85-8.67 8.39C-8.63 8.64-8.51 8.85-8.51 9.09C-8.51 9.38-8.55 9.63-8.55 9.88C-8.55 10.88-7.84 12.75-6.60 12.75C-5.89 12.75-4.81 11.92-4.81 11.29C-4.81 10.75-5.40 10.01-5.40 9.09C-5.40 8.93-5.35 8.72-5.31 8.55C-4.94 6.36-4.32 4.11-3.82 1.96C-3.61 1.00-3.28 0.09-3.28-0.87C-3.28-1.16-3.69-2.61-4.44-2.61C-4.77-2.61-5.52-2.15-5.69-1.78C-7.35 1.13-8.92 4.07-10.54 6.89C-10.79 7.35-11.33 7.60-11.70 7.89C-11.87 7.43-12.20 6.94-12.20 6.56L-12.20 6.44C-11.87 3.82-11.45 1.21-11.04-1.41C-11.00-1.65-10.91-1.94-10.91-2.19C-10.91-2.57-11.12-2.98-11.95-2.98C-12.57-2.98-12.91-2.48-13.03-1.86C-13.61 1.21-14.07 4.24-14.57 7.27ZM-11.29-6.63C-10.91-6.68-10.71-6.68-10.62-6.72C-8.42-7.63-6.18-8.58-3.98-9.58C-3.69-9.75-3.57-10.37-3.36-10.78C-3.82-10.87-4.23-10.99-4.69-11.03C-4.77-11.03-4.98-10.91-5.10-10.87C-6.97-10.20-8.76-9.46-10.62-8.75C-11.37-8.46-12.04-8.05-12.04-7.22C-11.87-6.97-11.45-6.72-11.29-6.63Z" fill="#ffd059"/>
      <path opacity="1" d="M10.42-0.16C10.25-0.12 10.08-0.08 9.96-0.08C9.55-0.08 9.34-0.37 9.34-0.91C9.34-2.82 10.00-4.81 10.00-6.80C10.00-7.51 9.55-8.00 8.96-8.00C7.26-8.00 7.06-2.86 6.72-0.16C6.56 1.08 5.64 1.42 3.98 1.42C2.99 1.42 2.53 1.29 2.53 0.63C2.53 0.46 2.57 0.25 2.61 0.05C2.91-1.45 3.07-2.98 3.24-4.56C3.24-4.97 2.74-5.60 2.32-5.60C2.12-5.60 1.91-5.56 1.74-5.47C1.20-4.48 0.54-3.48-0.08-2.28C0.37-2.24 0.54-1.94 0.54-1.41C0.54-0.58 0.54 1.25-0.91 1.25C-0.95 1.25-1.00 1.29-1.00 1.38C-1.00 1.71-0.58 2.83-0.58 4.24C-0.58 4.57-0.62 4.94-0.66 5.28C-1.04 7.60-1.62 10.09-1.62 12.37C-1.62 13.83-1.41 15.49-0.17 15.49C0.50 15.49 0.75 14.99 0.75 14.20C0.75 13.49 0.54 12.58 0.54 11.92C0.54 9.97 1.00 7.81 1.37 5.86C1.91 3.16 1.99 3.16 4.77 3.12L4.98 3.12C5.64 3.12 5.98 3.33 5.98 3.87C5.98 4.70 5.64 5.73 5.52 6.73C5.23 8.97 4.65 11.34 4.65 13.58C4.65 14.49 5.27 16.02 6.18 16.02C6.85 16.02 7.80 15.24 7.80 14.41C7.80 13.91 7.18 13.04 7.18 12.21C7.18 12.08 7.22 12.00 7.22 11.87C7.64 9.09 8.09 6.31 8.59 3.49C8.84 2.04 10.87 1.83 10.87 0.46C10.87 0.09 10.75-0.16 10.50-0.16Z" fill="#ffd059"/>
      <path opacity="1" d="M12.53 7.27L12.66 7.27C12.91 9.22 13.16 10.84 14.57 10.84C15.69 10.84 16.27 9.63 17.14 8.85C17.43 8.64 17.89 8.47 18.22 8.31L18.59 9.47C18.97 10.59 19.42 12.66 20.46 12.66C21.16 12.66 22.29 11.87 22.29 11.25C22.29 10.75 21.79 9.80 21.79 8.80C21.79 8.55 21.83 8.31 21.87 8.06C22.49 5.11 23.20 2.21 23.95-0.74C23.99-0.91 23.99-1.03 23.99-1.20C23.99-1.94 23.49-2.82 22.49-2.82C21.95-2.82 21.62-2.28 21.33-1.78C19.71 1.13 18.18 3.99 16.48 6.89C16.27 7.27 15.81 7.52 15.40 7.77C15.27 7.27 14.90 6.85 14.90 6.31C15.27 3.70 15.69 1.13 16.02-1.45C16.10-1.78 16.23-2.11 16.23-2.44C16.23-2.77 16.02-3.15 15.31-3.15C14.57-3.15 14.19-2.65 14.07-1.94C13.49 1.13 13.03 4.16 12.53 7.27Z" fill="#ffd059"/>
      <path opacity="1" d="M25.65 7.27C25.94 7.56 25.90 8.76 26.02 9.26C26.31 10.34 26.85 10.92 27.64 10.92C29.09 10.92 29.59 8.85 31.54 8.39C31.58 8.64 31.71 8.85 31.71 9.09C31.71 9.38 31.66 9.63 31.66 9.88C31.66 10.88 32.37 12.75 33.61 12.75C34.32 12.75 35.40 11.92 35.40 11.29C35.40 10.75 34.82 10.01 34.82 9.09C34.82 8.93 34.86 8.72 34.90 8.55C35.27 6.36 35.90 4.11 36.40 1.96C36.60 1.00 36.93 0.09 36.93-0.87C36.93-1.16 36.52-2.61 35.77-2.61C35.44-2.61 34.69-2.15 34.53-1.78C32.87 1.13 31.29 4.07 29.67 6.89C29.42 7.35 28.88 7.60 28.51 7.89C28.34 7.43 28.01 6.94 28.01 6.56L28.01 6.44C28.34 3.82 28.76 1.21 29.17-1.41C29.22-1.65 29.30-1.94 29.30-2.19C29.30-2.57 29.09-2.98 28.26-2.98C27.64-2.98 27.31-2.48 27.18-1.86C26.60 1.21 26.14 4.24 25.65 7.27ZM28.93-6.63C29.30-6.68 29.51-6.68 29.59-6.72C31.79-7.63 34.03-8.58 36.23-9.58C36.52-9.75 36.64-10.37 36.85-10.78C36.40-10.87 35.98-10.99 35.52-11.03C35.44-11.03 35.23-10.91 35.11-10.87C33.24-10.20 31.46-9.46 29.59-8.75C28.84-8.46 28.18-8.05 28.18-7.22C28.34-6.97 28.76-6.72 28.93-6.63Z" fill="#ffd059"/>
      <path opacity="1" d="" fill="#ffd059"/>
      <path opacity="1" d="M60.59-2.48C60.05-2.94 59.51-3.15 59.01-3.15C57.85-3.15 56.81-2.28 55.61-2.28C55.15-2.28 54.99-2.40 54.57-2.53L54.57-2.77C54.57-3.52 54.28-4.73 53.53-4.73C52.46-4.73 51.34-4.14 50.46-4.14C50.09-4.14 49.72-4.35 49.38-4.35C46.44-4.35 44.94 2.41 44.40 6.27C44.70 6.81 44.86 8.51 45.94 8.51C46.56 8.51 47.39 7.52 47.81 7.27C48.02 7.19 48.35 7.10 48.64 6.98C48.68 7.27 48.72 7.48 48.72 7.72L48.72 7.97C47.43 13.53 45.69 19.14 45.44 24.78C45.44 25.40 46.23 26.90 46.85 26.90C48.76 26.90 50.09 23.95 50.09 22.17C50.09 21.13 49.76 20.13 49.76 19.14C49.76 17.73 50.05 16.32 50.38 14.95C50.96 12.33 51.63 9.76 52.29 7.27C52.75 10.17 53.66 10.75 54.32 10.75C55.15 10.75 55.24 10.38 55.36 10.26C57.85 7.85 60.05 5.15 61.00 1.79C61.21 1.04 61.46 0.30 61.46-0.45C61.46-1.16 61.25-1.86 60.59-2.48ZM57.85 4.53C57.31 5.61 56.40 6.56 55.61 7.48C55.44 7.72 54.99 7.64 54.57 7.77C54.57 6.60 55.44 5.40 55.44 4.90C55.44 4.36 54.24 4.99 54.24 3.87C54.24 1.54 55.57-0.45 57.68-1.41C58.06-1.57 58.39-1.65 58.64-1.65C59.30-1.65 59.68-1.16 59.84-0.08C59.26 1.50 58.64 3.04 57.85 4.53ZM47.23 5.15C47.14 5.36 46.85 5.32 46.60 5.36C46.52 5.07 46.31 4.74 46.31 4.45C46.85 2.58 47.43 0.75 48.10-1.07C48.26-1.57 49.05-1.86 49.59-2.28C49.84-1.70 50.13-1.16 50.38-0.62C49.76 1.67 48.72 3.53 47.23 5.15Z" fill="#ffd059"/>
      <path opacity="1" d="M63.12 6.98C63.12 10.51 64.78 12.41 67.56 12.41C71.38 12.41 74.87 7.43 74.87 3.33C74.87 1.96 74.58 0.59 73.99-0.78C73.83-1.07 73.37-1.32 73.08-1.61C72.42-1.28 72.09-1.07 72.09-0.45C72.09 0.55 72.67 1.38 72.67 2.25C72.67 4.53 71.21 7.27 69.97 9.43C69.68 9.92 68.52 10.17 67.73 10.51C67.40 9.88 66.69 9.26 66.69 8.64L66.69 8.51C67.27 5.86 67.85 3.12 70.47 0.92C70.63 0.84 70.72 0.55 70.72 0.30C70.72-0.45 69.80-0.78 68.85-0.78C65.24-0.78 63.37 5.15 63.12 6.98Z" fill="#ffd059"/>
      <path opacity="1" d="M88.98-0.16C88.81-0.12 88.64-0.08 88.52-0.08C88.10-0.08 87.90-0.37 87.90-0.91C87.90-2.82 88.56-4.81 88.56-6.80C88.56-7.51 88.10-8.00 87.52-8.00C85.82-8.00 85.61-2.86 85.28-0.16C85.12 1.08 84.20 1.42 82.54 1.42C81.55 1.42 81.09 1.29 81.09 0.63C81.09 0.46 81.13 0.25 81.17 0.05C81.46-1.45 81.63-2.98 81.80-4.56C81.80-4.97 81.30-5.60 80.88-5.60C80.68-5.60 80.47-5.56 80.30-5.47C79.76-4.48 79.10-3.48 78.48-2.28C78.93-2.24 79.10-1.94 79.10-1.41C79.10-0.58 79.10 1.25 77.65 1.25C77.61 1.25 77.56 1.29 77.56 1.38C77.56 1.71 77.98 2.83 77.98 4.24C77.98 4.57 77.94 4.94 77.90 5.28C77.52 7.60 76.94 10.09 76.94 12.37C76.94 13.83 77.15 15.49 78.39 15.49C79.06 15.49 79.31 14.99 79.31 14.20C79.31 13.49 79.10 12.58 79.10 11.92C79.10 9.97 79.56 7.81 79.93 5.86C80.47 3.16 80.55 3.16 83.33 3.12L83.54 3.12C84.20 3.12 84.54 3.33 84.54 3.87C84.54 4.70 84.20 5.73 84.08 6.73C83.79 8.97 83.21 11.34 83.21 13.58C83.21 14.49 83.83 16.02 84.74 16.02C85.41 16.02 86.36 15.24 86.36 14.41C86.36 13.91 85.74 13.04 85.74 12.21C85.74 12.08 85.78 12.00 85.78 11.87C86.20 9.09 86.65 6.31 87.15 3.49C87.40 2.04 89.43 1.83 89.43 0.46C89.43 0.09 89.31-0.16 89.06-0.16Z" fill="#ffd059"/>
      <path opacity="1" d="M100.80-4.89C98.81-4.89 98.85-2.36 96.94-2.36C96.53-2.36 96.11-2.61 95.74-2.61C93.17-2.61 90.72 3.04 90.72 5.40C90.72 7.27 91.30 8.10 92.55 8.10C92.96 8.10 93.67 7.89 94.04 7.89C94.45 7.89 94.58 8.14 94.58 8.47C94.58 9.43 94.12 10.92 93.75 11.92C92.67 15.69 91.76 19.51 90.39 23.12C89.68 24.95 88.85 26.81 87.15 27.98C87.03 27.81 86.90 27.73 86.74 27.73C86.11 27.73 86.11 27.35 86.11 27.27C86.11 25.74 86.98 24.03 87.52 22.71C88.85 19.51 90.55 16.40 92.30 13.37C92.59 12.91 92.75 12.37 92.71 11.83C92.71 11.42 92.59 9.92 91.88 9.92C91.76 9.92 91.63 10.01 91.51 10.21C88.52 15.32 84.45 21.46 84.45 27.69C84.54 29.06 84.99 31.42 86.74 31.42C86.90 31.42 87.03 31.38 87.15 31.17C87.27 31.21 87.36 31.21 87.48 31.21C88.44 31.21 90.64 29.06 91.63 27.73C94.54 23.74 95.82 18.97 96.86 14.28C97.82 9.92 98.81 5.61 99.89 1.29C100.26-0.24 100.93-1.65 101.43-3.23C101.51-3.44 101.55-3.69 101.55-3.94C101.55-4.39 101.38-4.77 100.80-4.89ZM93.54 6.06C93.33 6.27 93.13 6.36 92.92 6.36C92.55 6.36 92.30 5.98 92.30 5.48C92.59 2.95 93.54 0.75 95.33-1.03C95.49-1.20 95.78-1.28 96.07-1.28C96.74-1.28 96.78-0.74 96.99-0.33C96.45 2.25 95.41 4.45 93.54 6.06Z" fill="#ffd059"/>
    </g>
    <g transform="matrix(0.8504909739408669 0 0 0.8504909739408669 -124.6245562640818 23.19304132852691)">
      <g style="">
        <g transform="matrix(0.5153128378779978 0.12390592850273305 -0.12390592850273302 0.5153128378779976 25.8345644371787 -11.9783107507387)">
          <polygon style="stroke: none; stroke-width: 1; stroke-dasharray: none; stroke-linecap: butt; stroke-dashoffset: 0; stroke-linejoin: miter; stroke-miterlimit: 4; fill: rgb(255,208,89); fill-rule: evenodd; opacity: 1;" points="-16.58,-16.54 1.421085e-14,16.54 16.58,-16.54 "/>
        </g>
        <g transform="matrix(0.5153128378779978 0.12390592850273305 -0.12390592850273302 0.5153128378779976 -17.147600193914172 14.004386551083734)">
          <polygon style="stroke: none; stroke-width: 1; stroke-dasharray: none; stroke-linecap: butt; stroke-dashoffset: 0; stroke-linejoin: miter; stroke-miterlimit: 4; fill: rgb(79,181,185); fill-rule: evenodd; opacity: 1;" points="-16.580000000000002,-16.535000000000004 -1.065814e-14,16.535000000000004 16.580000000000002,-16.535000000000004 "/>
        </g>
        <g transform="matrix(0.5153128378779978 0.12390592850273305 -0.12390592850273302 0.5153128378779976 -8.423353848639659 16.10211392063499)">
          <polygon style="stroke: none; stroke-width: 1; stroke-dasharray: none; stroke-linecap: butt; stroke-dashoffset: 0; stroke-linejoin: miter; stroke-miterlimit: 4; fill: rgb(253,196,70); fill-rule: evenodd; opacity: 1;" points="7.10542e-15,-16.535000000000004 -16.580000000000005,16.535000000000004 16.580000000000005,16.535000000000004 "/>
        </g>
        <g transform="matrix(0.5153128378779978 0.12390592850273305 -0.12390592850273302 0.5153128378779976 -12.551279856708213 33.269761114540486)">
          <polygon style="stroke: none; stroke-width: 1; stroke-dasharray: none; stroke-linecap: butt; stroke-dashoffset: 0; stroke-linejoin: miter; stroke-miterlimit: 4; fill: rgb(255,208,89); fill-rule: evenodd; opacity: 1;" points="-16.580000000000005,-16.539999999999992 7.10542e-15,16.539999999999992 16.580000000000005,-16.539999999999992 "/>
        </g>
        <g transform="matrix(0.5153128378779978 0.12390592850273305 -0.12390592850273302 0.5153128378779976 -3.8862944877896712 35.35323930231393)">
          <polygon style="stroke: none; stroke-width: 1; stroke-dasharray: none; stroke-linecap: butt; stroke-dashoffset: 0; stroke-linejoin: miter; stroke-miterlimit: 4; fill: rgb(253,196,70); fill-rule: evenodd; opacity: 1;" points="-0.005000000000002558,-16.539999999999992 -16.585,16.539999999999992 16.585,16.539999999999992 "/>
        </g>
        <g transform="matrix(0.5153128378779978 0.12390592850273305 -0.12390592850273302 0.5153128378779976 4.78384400950762 37.437956549372416)">
          <polygon style="stroke: none; stroke-width: 1; stroke-dasharray: none; stroke-linecap: butt; stroke-dashoffset: 0; stroke-linejoin: miter; stroke-miterlimit: 4; fill: rgb(255,208,89); fill-rule: evenodd; opacity: 1;" points="-16.58,-16.539999999999992 -1.421086e-14,16.539999999999992 16.58,-16.539999999999992 "/>
        </g>
        <g transform="matrix(0.5153128378779978 0.12390592850273305 -0.12390592850273302 0.5153128378779976 8.911770017576174 20.270309355466935)">
          <polygon style="stroke: none; stroke-width: 1; stroke-dasharray: none; stroke-linecap: butt; stroke-dashoffset: 0; stroke-linejoin: miter; stroke-miterlimit: 4; fill: rgb(253,196,70); fill-rule: evenodd; opacity: 1;" points="-1.421086e-14,-16.535000000000004 -16.58,16.535000000000004 16.58,16.535000000000004 "/>
        </g>
        <g transform="matrix(0.5153128378779978 0.12390592850273305 -0.12390592850273302 0.5153128378779976 17.579331950684086 22.354407072882907)">
          <polygon style="stroke: none; stroke-width: 1; stroke-dasharray: none; stroke-linecap: butt; stroke-dashoffset: 0; stroke-linejoin: miter; stroke-miterlimit: 4; fill: rgb(255,208,89); fill-rule: evenodd; opacity: 1;" points="-16.58,-16.535000000000004 1.421085e-14,16.535000000000004 16.58,-16.535000000000004 "/>
        </g>
        <g transform="matrix(0.5153128378779978 0.12390592850273305 -0.12390592850273302 0.5153128378779976 21.70725795875265 5.186759878977394)">
          <polygon style="stroke: none; stroke-width: 1; stroke-dasharray: none; stroke-linecap: butt; stroke-dashoffset: 0; stroke-linejoin: miter; stroke-miterlimit: 4; fill: rgb(253,196,70); fill-rule: evenodd; opacity: 1;" points="1.421085e-14,-16.54 -16.58,16.54 16.58,16.54 "/>
        </g>
        <g transform="matrix(0.5153128378779978 0.12390592850273305 -0.12390592850273302 0.5153128378779976 30.374819891860568 7.270857596393366)">
          <polygon style="stroke: none; stroke-width: 1; stroke-dasharray: none; stroke-linecap: butt; stroke-dashoffset: 0; stroke-linejoin: miter; stroke-miterlimit: 4; fill: rgb(255,208,89); fill-rule: evenodd; opacity: 1;" points="-16.58,-16.54 1.421085e-14,16.54 16.58,-16.54 "/>
        </g>
        <g transform="matrix(0.5153128378779978 0.12390592850273305 -0.12390592850273302 0.5153128378779976 34.50212637028662 -9.894213033322732)">
          <polygon style="stroke: none; stroke-width: 1; stroke-dasharray: none; stroke-linecap: butt; stroke-dashoffset: 0; stroke-linejoin: miter; stroke-miterlimit: 4; fill: rgb(253,196,70); fill-rule: evenodd; opacity: 1;" points="1.421085e-14,-16.54 -16.58,16.54 16.58,16.54 "/>
        </g>
        <g transform="matrix(0.5153128378779978 0.12390592850273305 -0.12390592850273302 0.5153128378779976 -25.835183966821198 11.98088731492809)">
          <polygon style="stroke: none; stroke-width: 1; stroke-dasharray: none; stroke-linecap: butt; stroke-dashoffset: 0; stroke-linejoin: miter; stroke-miterlimit: 4; fill: rgb(68,171,182); fill-rule: evenodd; opacity: 1;" points="0,-16.535000000000004 -16.58,16.535000000000004 16.58,16.535000000000004 "/>
        </g>
        <g transform="matrix(0.5153128378779978 0.12390592850273305 -0.12390592850273302 0.5153128378779976 17.152133792650417 -14.000570927609306)">
          <polygon style="stroke: none; stroke-width: 1; stroke-dasharray: none; stroke-linecap: butt; stroke-dashoffset: 0; stroke-linejoin: miter; stroke-miterlimit: 4; fill: rgb(253,196,70); fill-rule: evenodd; opacity: 1;" points="-1.421086e-14,-16.540000000000003 -16.58,16.540000000000003 16.58,16.540000000000003 "/>
        </g>
        <g transform="matrix(0.5153128378779978 0.12390592850273305 -0.12390592850273302 0.5153128378779976 8.422734318997158 -16.099537356445598)">
          <polygon style="stroke: none; stroke-width: 1; stroke-dasharray: none; stroke-linecap: butt; stroke-dashoffset: 0; stroke-linejoin: miter; stroke-miterlimit: 4; fill: rgb(68,171,182); fill-rule: evenodd; opacity: 1;" points="-16.58,-16.540000000000003 0,16.540000000000003 16.58,-16.540000000000003 "/>
        </g>
        <g transform="matrix(0.5153128378779978 0.12390592850273305 -0.12390592850273302 0.5153128378779976 12.5506603270657 -33.2671845503511)">
          <polygon style="stroke: none; stroke-width: 1; stroke-dasharray: none; stroke-linecap: butt; stroke-dashoffset: 0; stroke-linejoin: miter; stroke-miterlimit: 4; fill: rgb(68,171,182); fill-rule: evenodd; opacity: 1;" points="0,-16.535000000000004 -16.58,16.535 16.58,16.535 "/>
        </g>
        <g transform="matrix(0.5153128378779978 0.12390592850273305 -0.12390592850273302 0.5153128378779976 3.8830983939577797 -35.35128226776707)">
          <polygon style="stroke: none; stroke-width: 1; stroke-dasharray: none; stroke-linecap: butt; stroke-dashoffset: 0; stroke-linejoin: miter; stroke-miterlimit: 4; fill: rgb(79,181,185); fill-rule: evenodd; opacity: 1;" points="-16.58,-16.535000000000004 0,16.535 16.58,-16.535000000000004 "/>
        </g>
        <g transform="matrix(0.5153128378779978 0.12390592850273305 -0.12390592850273302 0.5153128378779976 -4.779310410771363 -37.434140925898014)">
          <polygon style="stroke: none; stroke-width: 1; stroke-dasharray: none; stroke-linecap: butt; stroke-dashoffset: 0; stroke-linejoin: miter; stroke-miterlimit: 4; fill: rgb(68,171,182); fill-rule: evenodd; opacity: 1;" points="-1.065814e-14,-16.535000000000004 -16.580000000000002,16.535 16.580000000000002,16.535 "/>
        </g>
        <g transform="matrix(0.5153128378779978 0.12390592850273305 -0.12390592850273302 0.5153128378779976 -8.907236418839904 -20.26649373199251)">
          <polygon style="stroke: none; stroke-width: 1; stroke-dasharray: none; stroke-linecap: butt; stroke-dashoffset: 0; stroke-linejoin: miter; stroke-miterlimit: 4; fill: rgb(79,181,185); fill-rule: evenodd; opacity: 1;" points="-16.580000000000002,-16.540000000000003 -1.065814e-14,16.540000000000003 16.580000000000002,-16.540000000000003 "/>
        </g>
        <g transform="matrix(0.5153128378779978 0.12390592850273305 -0.12390592850273302 0.5153128378779976 -17.579951480326613 -22.351830508693514)">
          <polygon style="stroke: none; stroke-width: 1; stroke-dasharray: none; stroke-linecap: butt; stroke-dashoffset: 0; stroke-linejoin: miter; stroke-miterlimit: 4; fill: rgb(68,171,182); fill-rule: evenodd; opacity: 1;" points="0,-16.540000000000003 -16.58,16.540000000000003 16.58,16.540000000000003 "/>
        </g>
        <g transform="matrix(0.5153128378779978 0.12390592850273305 -0.12390592850273302 0.5153128378779976 -21.70725795875265 -5.186759878977405)">
          <polygon style="stroke: none; stroke-width: 1; stroke-dasharray: none; stroke-linecap: butt; stroke-dashoffset: 0; stroke-linejoin: miter; stroke-miterlimit: 4; fill: rgb(79,181,185); fill-rule: evenodd; opacity: 1;" points="-16.58,-16.540000000000006 0,16.540000000000006 16.58,-16.540000000000006 "/>
        </g>
        <g transform="matrix(0.5153128378779978 0.12390592850273305 -0.12390592850273302 0.5153128378779976 -30.374819891860568 -7.270857596393377)">
          <polygon style="stroke: none; stroke-width: 1; stroke-dasharray: none; stroke-linecap: butt; stroke-dashoffset: 0; stroke-linejoin: miter; stroke-miterlimit: 4; fill: rgb(68,171,182); fill-rule: evenodd; opacity: 1;" points="3.55272e-15,-16.540000000000006 -16.58,16.540000000000006 16.580000000000002,16.540000000000006 "/>
        </g>
        <g transform="matrix(0.5153128378779978 0.12390592850273305 -0.12390592850273302 0.5153128378779976 -34.50274589992912 9.896789597512118)">
          <polygon style="stroke: none; stroke-width: 1; stroke-dasharray: none; stroke-linecap: butt; stroke-dashoffset: 0; stroke-linejoin: miter; stroke-miterlimit: 4; fill: rgb(79,181,185); fill-rule: evenodd; opacity: 1;" points="-16.58,-16.535000000000004 3.55272e-15,16.535000000000004 16.580000000000002,-16.535000000000004 "/>
        </g>
      </g>
    </g>
  </g>
</svg>